<svg width="15.000000" height="17.100006" viewBox="0 0 15 17.1" fill="none" xmlns="http://www.w3.org/2000/svg" xmlns:xlink="http://www.w3.org/1999/xlink">
	<desc>
			Created with Pixso.
	</desc>
	<defs>
		<clipPath id="clip58_508">
			<rect id="search 3" width="15.000000" height="17.100000" fill="white" fill-opacity="0"/>
		</clipPath>
	</defs>
	<rect id="search 3" width="15.000000" height="17.100000" fill="#FFFFFF" fill-opacity="0"/>
	<g clip-path="url(#clip58_508)">
		<path id="Vector" d="M14.65 15.96L10.08 10.75C10.94 9.61 11.47 8.13 11.47 6.51C11.47 2.9 8.89 -0.03 5.73 -0.03C4.2 -0.03 2.76 0.65 1.67 1.88C0.59 3.12 -0.01 4.76 0 6.51C0 10.11 2.57 13.04 5.73 13.04C7.15 13.04 8.45 12.45 9.46 11.47L14.02 16.67L14.65 15.96ZM5.73 12.04C3.06 12.04 0.88 9.56 0.88 6.51C0.88 5.03 1.38 3.64 2.3 2.59C3.21 1.55 4.43 0.97 5.73 0.97C8.41 0.97 10.58 3.45 10.58 6.51C10.58 9.55 8.41 12.04 5.73 12.04Z" fill="#FFFFFF" fill-opacity="1.000000" fill-rule="nonzero"/>
	</g>
</svg>
